/* XPM */
static char *_1627474896[] = {
/* columns rows colors chars-per-pixel */
"78 81 10 1 ",
"  c None",
". c black",
"X c #0E0C0C",
"o c #171516",
"O c #271F1B",
"+ c #323232",
"@ c #373334",
"# c #673931",
"$ c #595757",
"% c #807B7A",
/* pixels */
"                                                                              ",
"                                                                              ",
"                                                                              ",
"                                                                              ",
"                                                                              ",
"                                                                              ",
"                                                                              ",
"                                                                              ",
"                                                                              ",
"                                                                              ",
"                                                                              ",
"                                       ++++++++++++                           ",
"                                    +++$$$$$$$$$%%%%                          ",
"                                  ++$$$$$$$$$%%%%                             ",
"                                ++$$$$$$$$%%%%%                               ",
"                               +$$$$$$$%%%%%%                                 ",
"                             ++$$$$$$%%%%%%                                   ",
"                            +$$$$$$%%%%%%                                     ",
"                           +$$$$$%%%%%%%                                      ",
"                          +$$$$$%%XXX%%                                       ",
"                          +$$$$%XXXXXX                                        ",
"                          OOO$%XXXXXXX                                        ",
"                           OOO%XXXXXXXX                                       ",
"                             OXXXXXXXXX                                       ",
"                              XXXXX#X#X                                       ",
"                              XXXXXXXXX                                       ",
"                              XXXXXXXXX                                       ",
"                              XXXXXXXXXO                                      ",
"                              XXXXXXXXXOOOO                                   ",
"                            XXXXXXXXXXXXXOOOO                                 ",
"                          XXXXXXXXXXXXXXXX OOOO                               ",
"                         XXXXXXXXXXXXXXXXXX  OOOO                             ",
"                        XXXXXXXXXXXXXXXXXXX    OOOoo                          ",
"                       XXXXXXXXXXXXXXXXXXXX      o@oo                         ",
"                      XXXXXXXXXXXXXXXXXXXX@      o@@oOO                       ",
"                      XXXXXXXXXXXXXXXXXXXo@     o@+o OOOO                     ",
"                      XXXXXXXXXXXXXXXXXX@oo@   ooo     OOOO                   ",
"                      XXXXXXXXXXXXXXXXX@@ @@  @o@        OOOO                 ",
"                      XXXXXXXXXXXXXXX @o@  o@o@@           OOOO               ",
"                      XXXXXXXXXXXXXX@@o@@  @@o@              OOOO             ",
"                      XXXXXXXXXXXXX@oo@ o   @o                 OOOO           ",
"                       XXXXXXXXXX oo@@ o@                        OO           ",
"                       XXXXXXXXXXoo@ooo@                                      ",
"                       XXXXXXXXX @oo @@                                       ",
"                       XXXXXXXXX  ooo                                         ",
"                       XXXXXXXXX . oo                                         ",
"                       XXXXXXXXX  ooo.                                        ",
"                       XXXXXXXX  ooo .                                        ",
"                       XXXXXXXXX ooo .                                        ",
"                       XXXXXXXXX  oo.                                         ",
"                       XXXXXXXXX  o                                           ",
"                        XXXXXXXX  o                                           ",
"                        XXXXXXXX  o                                           ",
"                        XXXXXXXX  o                                           ",
"                        XXXXXXXXX o                                           ",
"                         XXXXXXXX .                                           ",
"                         XXXXXXXX .                                           ",
"                         XXXXXXX                                              ",
"                         XXXXXXXX                                             ",
"                         XXXXXXX                                              ",
"                         XXXXXXX                                              ",
"                          XXXXX                                               ",
"                          XXXXX                                               ",
"                          XXXXX                                               ",
"                           XXXX                                               ",
"                           XXX                                                ",
"                           XXX                                                ",
"                            XX                                                ",
"                            XX                                                ",
"                            XX                                                ",
"                             X                                                ",
"                             X                                                ",
"                             X                                                ",
"                                                                              ",
"                                                                              ",
"                                                                              ",
"                                                                              ",
"                                                                              ",
"                                                                              ",
"                                                                              ",
"                                                                              "
};
