/* XPM */
static char *_1627474896[] = {
/* columns rows colors chars-per-pixel */
"84 87 10 1 ",
"  c None",
". c black",
"X c #0E0C0C",
"o c #171516",
"O c #271F1B",
"+ c #323232",
"@ c #373334",
"# c #673931",
"$ c #595757",
"% c #807B7A",
/* pixels */
"                                                                                    ",
"                                                                                    ",
"                                                                                    ",
"                                                                                    ",
"                                                                                    ",
"                                                                                    ",
"                                                                                    ",
"                                                                                    ",
"                                                         ++                         ",
"                                                        O$$$$++                     ",
"                                                        OO$$$$++                    ",
"                                                        OO$$$$$$$+                  ",
"                                                        OO$$$$$$$$++                ",
"                                                        OO%%%%$$$$$$+               ",
"                                                        OO%%%%%%$$$$$+              ",
"                                                        OO%%%%%%%$$$$$+             ",
"                                                        OO%%%%%%%%%$$$$+            ",
"                                                        OO   %%%%%%%$$$$+           ",
"                                                        OO     %%%%%%$$$$+          ",
"                                                        OO        %%%%$$$+          ",
"                                                        OO          %%%$$$+         ",
"                                                        OO           %%%%$+         ",
"                                                        OO             %%%$+        ",
"                                                        OO              %%%+        ",
"                                                        OO                %%+       ",
"                                                        OO                 %+       ",
"                                                         OO                 %       ",
"                                    XXXX                 OO                         ",
"                                  XXXXXX                 OO                         ",
"                                 XXXXXXX                 OO                         ",
"                                 XXXXXXXX                OO                         ",
"                                XXXXXXXXX                OO                         ",
"                                XXXXX#X#X                OO                         ",
"                                XXXXXXXXX                oo                         ",
"                                XXXXXXXXX               oooo                        ",
"                                XXXXXXXXX               oooo                        ",
"                               XXXXXXXXXXX             o@oo                         ",
"                              XXXXXXXXXXXXX           ooooO                         ",
"                            XXXXXXXXXXXXXXXX         oo@ OO                         ",
"                           XXXXXXXXXXXXXXXXX@       @o@  OO                         ",
"                          XXXXXXXXXXXXXXXXXX@@@@o@@o@@   OO                         ",
"                         XXXXXXXXXXXXXXXXXXX@oo@@ooo@    OO                         ",
"                        XXXXXXXXXXXXXXXXXXXXo@@o   o     OO                         ",
"                        XXXXXXXXXXXXXXXXXXX@             OO                         ",
"                        XXXXXXXXXXXXXXXXXX@               OO                        ",
"                        XXXXXXXXXXXXXXXXX@@               OO                        ",
"                        XXXXXXXXXXXXXXX @o@               OO                        ",
"                        XXXXXXXXXXXXXX@@o@@               OO                        ",
"                        XXXXXXXXXXXXX@oo@ o               OO                        ",
"                         XXXXXXXXXX oo@@ o@               OO                        ",
"                         XXXXXXXXXXoo@ooo@                OO                        ",
"                         XXXXXXXXX @oo @@                 OO                        ",
"                         XXXXXXXXX  ooo                   OO                        ",
"                         XXXXXXXXX . oo                                             ",
"                         XXXXXXXXX  ooo.                                            ",
"                         XXXXXXXX  ooo .                                            ",
"                         XXXXXXXXX ooo .                                            ",
"                         XXXXXXXXX  oo.                                             ",
"                         XXXXXXXXX  o                                               ",
"                          XXXXXXXX  o                                               ",
"                          XXXXXXXX  o                                               ",
"                          XXXXXXXX  o                                               ",
"                          XXXXXXXXX o                                               ",
"                           XXXXXXXX .                                               ",
"                           XXXXXXXX .                                               ",
"                           XXXXXXX                                                  ",
"                           XXXXXXXX                                                 ",
"                           XXXXXXX                                                  ",
"                           XXXXXXX                                                  ",
"                            XXXXX                                                   ",
"                            XXXXX                                                   ",
"                            XXXXX                                                   ",
"                             XXXX                                                   ",
"                             XXX                                                    ",
"                             XXX                                                    ",
"                              XX                                                    ",
"                              XX                                                    ",
"                              XX                                                    ",
"                               X                                                    ",
"                               X                                                    ",
"                               X                                                    ",
"                                                                                    ",
"                                                                                    ",
"                                                                                    ",
"                                                                                    ",
"                                                                                    ",
"                                                                                    "
};
