/* XPM */
static char *_1627474896[] = {
/* columns rows colors chars-per-pixel */
"88 85 10 1 ",
"  c None",
". c black",
"X c #0E0C0C",
"o c #171516",
"O c #271F1B",
"+ c #323232",
"@ c #373334",
"# c #673931",
"$ c #595757",
"% c #807B7A",
/* pixels */
"                                                                                        ",
"                                                                                        ",
"                                                                                        ",
"                                                                                        ",
"                                                                                        ",
"                                                                                        ",
"                                                                                        ",
"                                                       ++                               ",
"                                                      O$$$$++                           ",
"                                                      OO$$$$++                          ",
"                                                      OO$$$$$$$+                        ",
"                                                      OO$$$$$$$$++                      ",
"                                                      OO%%%%$$$$$$+                     ",
"                                                      OO%%%%%%$$$$$+                    ",
"                                                      OO%%%%%%%$$$$$+                   ",
"                                                      OO%%%%%%%%%$$$$+                  ",
"                                                      OO   %%%%%%%$$$$+                 ",
"                                                      OO     %%%%%%$$$$+                ",
"                                                      OO        %%%%$$$+                ",
"                                                      OO          %%%$$$+               ",
"                                       XXXX           OO           %%%%$+               ",
"                                     XXXXXX           OO             %%%$+              ",
"                                    XXXXXXX           OO              %%%+              ",
"                                    XXXXXXXX          OO                %%+             ",
"                                   XXXXXXXXX          OO                 %+             ",
"                                   XXXXX#X#X           OO                 %             ",
"                                   XXXXXXXXX           OO                               ",
"                                   XXXXXXXXX           OO                               ",
"                                   XXXXXXXXX           OO                               ",
"                                  XXXXXXXXXXX          OO                               ",
"                                 XXXXXXXXXXXXX         OO                               ",
"                               XXXXXXXXXXXXXXXX        OO                               ",
"                              XXXXXXXXXXXXXXXXXX       OO                               ",
"                             XXXXXXXXXXXXXXXXXXX       oo                               ",
"                            XXXXXXXXXXXXXXXXXXXX      oooo                              ",
"                           XXXXXXXXXXXXXXXXXXXX@      oooo                              ",
"                           XXXXXXXXXXXXXXXXXXXo@     o@oo                               ",
"                           XXXXXXXXXXXXXXXXXX@oo@   ooooO                               ",
"                           XXXXXXXXXXXXXXXXX@@ @@  @o@ OO                               ",
"                           XXXXXXXXXXXXXXX @o@  o@o@@  OO                               ",
"                           XXXXXXXXXXXXXX@@o@@  @@o@   OO                               ",
"                           XXXXXXXXXXXXX@oo@ o   @o    OO                               ",
"                            XXXXXXXXXX oo@@ o@         OO                               ",
"                            XXXXXXXXXXoo@ooo@           OO                              ",
"                            XXXXXXXXX @oo @@            OO                              ",
"                            XXXXXXXXX  ooo              OO                              ",
"                            XXXXXXXXX . oo              OO                              ",
"                            XXXXXXXXX  ooo.             OO                              ",
"                            XXXXXXXX  ooo .             OO                              ",
"                            XXXXXXXXX ooo .             OO                              ",
"                            XXXXXXXXX  oo.              OO                              ",
"                            XXXXXXXXX  o                OO                              ",
"                             XXXXXXXX  o                                                ",
"                             XXXXXXXX  o                                                ",
"                             XXXXXXXX  o                                                ",
"                             XXXXXXXXX o                                                ",
"                              XXXXXXXX .                                                ",
"                              XXXXXXXX .                                                ",
"                              XXXXXXX                                                   ",
"                              XXXXXXXX                                                  ",
"                              XXXXXXX                                                   ",
"                              XXXXXXX                                                   ",
"                               XXXXX                                                    ",
"                               XXXXX                                                    ",
"                               XXXXX                                                    ",
"                                XXXX                                                    ",
"                                XXX                                                     ",
"                                XXX                                                     ",
"                                 XX                                                     ",
"                                 XX                                                     ",
"                                 XX                                                     ",
"                                  X                                                     ",
"                                  X                                                     ",
"                                  X                                                     ",
"                                                                                        ",
"                                                                                        ",
"                                                                                        ",
"                                                                                        ",
"                                                                                        ",
"                                                                                        ",
"                                                                                        ",
"                                                                                        ",
"                                                                                        ",
"                                                                                        ",
"                                                                                        "
};
