/* XPM */
static char *Food[] = {
/* columns rows colors chars-per-pixel */
"15 17 19 1 ",
"  c #170625",
". c #7C2C2A",
"X c #8D120E",
"o c #9D200E",
"O c #BB260E",
"+ c #D8370E",
"@ c #91462E",
"# c #B65533",
"$ c #EC5C0E",
"% c #DF5A39",
"& c #AD6545",
"* c #A3716E",
"= c #FF892E",
"- c #E68639",
"; c #F19B4F",
": c #FFB65F",
"> c #CA967C",
", c #FCD1B4",
"< c None",
/* pixels */
"<<<<<<    <<<<<",
"<<<<< *&>@ <<<<",
"<<<<<< oo <<<<<",
"<<<<<< $, <<<<<",
"<<<<<< =% <<<<<",
"<<<<< oooo <<<<",
"<<<< oO+%Oo <<<",
"<<< XO+$$,OX <<",
"<<< o-;::;-o <<",
"<<< o-.#-#-o <<",
"<<< o-#...-o <<",
"<<< o-;.#.-o <<",
"<<< o-;::;-o <<",
"<<< oO+$$%Oo <<",
"<<< XoOOOOoX <<",
"<<<<        <<<",
"<<<<<<<<< <<<<<"
};
